<?xml version="1.0" standalone="no"?>
<!DOCTYPE svg PUBLIC "-//W3C//DTD SVG 20010904//EN"
 "http://www.w3.org/TR/2001/REC-SVG-20010904/DTD/svg10.dtd">
<svg version="1.0" xmlns="http://www.w3.org/2000/svg"
 width="1010.000000pt" height="426.000000pt" viewBox="0 0 1010.000000 426.000000"
 preserveAspectRatio="xMidYMid meet">

<g transform="translate(0.000000,426.000000) scale(0.100000,-0.100000)"
fill="#000000" stroke="none">
<path d="M32 4242 c-10 -7 -12 -158 -12 -738 0 -1204 29 -2023 97 -2834 15
-173 27 -356 27 -406 l1 -91 1550 4 c2244 5 5773 22 6177 30 l347 6 -5 -24 -5
-24 12 23 c8 15 18 21 28 16 33 -13 54 -17 49 -8 -3 5 19 10 50 12 31 2 60 9
66 16 12 15 396 170 821 332 355 134 437 163 665 229 102 30 177 54 168 55
-15 0 -18 9 -18 53 0 51 -68 1221 -150 2577 -23 371 -39 694 -37 718 4 41 4
42 -27 41 -177 -3 -8997 12 -9336 17 -256 3 -461 1 -468 -4z m58 -19 c6 -6
-22 -23 -37 -23 -7 0 -13 9 -13 21 0 16 4 19 23 13 12 -3 24 -8 27 -11z m930
-4 c-589 -10 -920 -10 -920 1 0 7 220 9 643 8 612 -2 625 -2 277 -9z m5922
-15 l2847 -6 5 -72 c3 -39 8 -156 11 -261 7 -231 26 -578 65 -1200 52 -821 75
-1289 83 -1693 l2 -113 -50 5 c-27 3 -108 8 -180 11 -457 19 -948 48 -1115 65
-177 18 -299 24 -260 14 13 -4 14 -33 3 -247 -15 -316 -48 -487 -93 -487 -24
0 -27 20 -2 21 16 1 16 2 0 6 -10 2 -18 10 -18 17 0 7 20 111 45 232 49 235
62 382 36 406 -11 10 -13 10 -7 0 18 -31 5 -179 -30 -349 -20 -98 -38 -180
-41 -183 -3 -3 -20 13 -39 35 -55 63 -65 115 -62 326 2 156 0 190 -15 222 -9
22 -21 36 -27 32 -6 -4 -9 -12 -8 -18 1 -7 -12 -28 -30 -47 -35 -38 -72 -124
-72 -169 0 -15 -8 -36 -19 -45 -10 -9 -33 -48 -51 -87 -26 -57 -31 -79 -27
-116 2 -25 12 -52 20 -61 9 -8 85 -33 169 -54 84 -22 154 -41 156 -43 2 -2 0
-23 -5 -47 l-9 -43 -379 -7 c-1901 -33 -7650 -66 -7672 -44 -10 10 -21 697
-22 1406 -2 970 -28 2405 -46 2541 l-5 37 203 7 c285 10 2638 24 3267 19 289
-2 1806 -7 3372 -10z m2902 -56 c3 -35 13 -189 21 -343 9 -154 32 -536 51
-850 63 -1042 124 -2070 124 -2097 0 -28 -21 -37 -67 -30 -24 5 -32 22 -10 22
6 1 26 7 42 16 l30 14 -32 -5 c-22 -3 -33 0 -33 8 -3 295 -32 897 -80 1677
-51 820 -68 1132 -76 1418 -6 207 -5 232 9 232 12 0 17 -15 21 -62z m-9750
-55 c9 -146 25 -672 31 -1063 7 -451 15 -2439 10 -2420 -11 42 -58 826 -75
1245 -24 611 -37 1940 -23 2243 5 88 6 92 28 92 22 0 23 -4 29 -97z m8308
-3152 c2 -5 91 -14 198 -21 107 -6 308 -22 445 -36 294 -28 623 -54 715 -55
122 -1 113 -10 -82 -86 -101 -40 -257 -99 -348 -132 -91 -32 -327 -121 -525
-196 -393 -150 -496 -187 -503 -181 -2 3 3 26 11 53 28 84 36 153 48 378 6
121 13 235 15 253 5 30 18 43 26 23z m-290 -18 c9 -34 -12 -81 -57 -130 l-44
-48 0 30 c-1 36 32 111 61 143 26 27 34 28 40 5z m1488 -53 c275 -12 328 -17
314 -30 -14 -13 -720 32 -734 47 -3 3 33 3 80 -1 47 -3 200 -11 340 -16z
m-1461 -69 c1 -29 -1 -32 -14 -21 -9 7 -19 10 -23 6 -4 -4 0 -13 9 -19 13 -10
16 -34 15 -127 0 -123 10 -161 59 -226 14 -18 25 -36 25 -39 0 -11 -67 4 -182
41 -119 39 -134 52 -125 115 9 68 52 143 129 226 42 44 79 91 84 104 l8 24 7
-25 c4 -14 7 -40 8 -59z m1786 5 c-22 -7 -56 -16 -75 -19 l-35 -6 40 19 c22
10 56 18 75 18 l35 0 -40 -12z m-125 -36 c-8 -5 -19 -10 -25 -10 -5 0 -3 5 5
10 8 5 20 10 25 10 6 0 3 -5 -5 -10z m-1585 -539 c-6 -5 -434 -11 -980 -13
-533 -2 -864 -3 -735 -1 129 2 519 7 865 12 347 4 682 8 745 9 67 1 110 -2
105 -7z"/>
<path d="M1142 3453 l-2 -323 235 0 235 0 -2 323 -3 322 -2 -317 -3 -318 -225
0 -225 0 -3 318 -2 317 -3 -322z"/>
<path d="M581 3695 c-1 -33 -4 -78 -8 -100 l-6 -40 -19 40 c-18 39 -18 40 -13
8 3 -18 8 -48 11 -65 6 -31 5 -32 -12 -18 -16 14 -17 13 -10 -5 5 -11 9 -54
11 -95 1 -41 6 -112 10 -157 l8 -83 -52 0 -51 0 0 -510 0 -509 -97 -4 c-82 -2
-74 -3 45 -5 78 -1 142 1 142 6 0 4 -18 6 -40 4 l-40 -4 0 506 0 506 100 0
100 0 3 -377 2 -378 3 378 2 377 130 0 c109 0 130 -2 130 -15 0 -12 -19 -15
-115 -15 -70 0 -115 -4 -115 -10 0 -5 25 -10 55 -10 30 0 55 -4 55 -10 0 -5
-25 -10 -55 -10 l-55 0 0 -90 0 -90 55 0 c30 0 55 -4 55 -10 0 -5 -25 -10 -55
-10 l-55 0 0 -35 0 -35 120 0 120 0 0 170 c0 107 4 170 10 170 6 0 10 -103 10
-290 0 -187 -4 -290 -10 -290 -6 0 -10 42 -10 105 l0 105 -120 0 -120 0 0 -25
c0 -24 3 -25 55 -25 43 0 55 -3 55 -16 0 -12 -10 -14 -55 -11 l-55 4 0 -88 0
-89 55 0 c30 0 55 -4 55 -10 0 -5 -25 -10 -55 -10 l-55 0 0 -37 0 -38 95 3
c81 3 95 1 95 -12 0 -13 -17 -16 -102 -18 -91 -2 -84 -3 52 -8 l155 -5 42
-160 c23 -88 42 -168 42 -177 1 -17 -18 -18 -259 -18 -143 0 -260 -3 -260 -7
0 -5 141 -9 313 -10 171 -1 301 1 288 5 -21 7 -17 11 50 55 l72 47 106 -2 c58
-1 86 -3 61 -5 -50 -4 -92 -21 -84 -35 3 -4 -6 -8 -20 -8 -14 0 -35 -9 -46
-20 -11 -11 -22 -20 -25 -19 -3 0 -11 -2 -18 -5 -6 -3 2 -4 18 -3 19 1 29 7
27 16 -2 8 3 11 13 8 8 -4 15 -1 15 5 0 6 3 8 7 5 3 -4 26 4 50 19 41 23 51
25 171 24 155 -1 169 1 72 11 -41 4 -79 9 -85 10 -5 1 -19 -2 -30 -6 -20 -8
-20 -8 0 11 11 10 16 16 11 12 -15 -12 -28 -9 -20 4 4 7 3 8 -5 4 -26 -17 -58
52 -40 86 6 11 17 17 25 14 11 -4 14 4 14 34 0 22 5 40 10 40 7 0 9 -17 5 -44
-4 -38 -3 -44 13 -40 18 5 47 -41 36 -57 -3 -5 -1 -9 4 -9 5 0 8 -11 7 -25
l-3 -25 171 0 172 -1 -90 -35 c-49 -19 -91 -39 -93 -45 -2 -5 -25 -9 -52 -9
-43 0 -47 2 -46 23 1 21 -2 22 -99 23 l-100 0 99 -3 c89 -3 97 -5 80 -18 -19
-15 -19 -15 0 -8 13 4 17 3 13 -4 -5 -7 -60 -12 -149 -12 -78 -1 -144 -4 -147
-6 -2 -3 102 -5 232 -5 183 0 237 -3 237 -12 0 -7 24 -24 52 -38 91 -44 132
-91 93 -106 -8 -4 -42 10 -75 29 -34 21 -60 31 -60 24 0 -7 28 -27 63 -46 61
-33 62 -33 101 -17 49 20 55 20 49 -2 -7 -29 23 -91 51 -104 33 -14 76 3 76
31 0 36 -10 48 -35 43 -18 -3 -34 5 -59 30 -18 18 -39 32 -45 30 -7 -2 -11 18
-11 61 0 59 3 68 26 86 31 25 50 27 61 7 4 -8 21 -21 37 -30 27 -13 31 -13 41
1 14 19 45 11 45 -10 0 -8 -7 -20 -15 -27 -31 -26 8 -148 61 -189 27 -21 78
-28 101 -13 24 15 30 56 17 118 -16 80 -36 116 -97 181 l-50 53 399 2 c219 1
335 4 257 5 -79 2 -143 5 -143 7 0 2 7 19 15 39 11 27 19 34 34 30 24 -6 61
13 61 32 0 18 -45 21 -56 4 -4 -8 -9 -7 -15 2 -7 12 -9 11 -10 -1 0 -8 -6 0
-13 19 -17 47 -30 49 -58 8 -22 -33 -23 -33 -42 -15 -11 10 -25 18 -32 18 -8
0 -11 6 -7 16 4 10 14 14 30 11 17 -3 23 -1 19 8 -3 8 8 18 25 25 22 9 29 19
27 33 -5 32 -26 31 -45 -2 -10 -17 -23 -31 -30 -31 -16 0 -29 23 -16 27 6 2 9
13 6 23 -3 13 4 27 23 43 29 25 28 65 0 54 -11 -5 -14 3 -13 35 l2 41 -138 1
-139 1 -24 77 c-31 97 -72 151 -154 206 -36 23 -85 63 -110 88 -36 35 -46 40
-46 25 0 -10 5 -17 11 -15 6 3 19 -3 27 -13 15 -17 13 -25 -26 -120 -23 -56
-45 -105 -48 -108 -3 -3 -16 10 -29 30 -27 39 -35 42 -61 18 -17 -15 -18 -15
-18 0 0 10 4 17 9 17 5 0 8 8 7 18 0 10 5 16 14 14 10 -2 6 6 -9 22 -26 28
-42 36 -21 11 8 -10 9 -23 1 -47 -5 -18 -25 -93 -42 -165 -24 -97 -37 -133
-47 -133 -9 0 -13 -2 -10 -6 3 -3 42 4 86 15 44 12 93 22 109 22 26 2 25 2 -7
8 l-34 6 28 19 c16 10 45 21 66 23 32 5 41 1 72 -31 48 -49 64 -89 50 -121
-15 -32 -69 -65 -107 -65 -22 0 -26 3 -15 10 9 6 -20 7 -80 3 -52 -3 -97 -7
-99 -10 -3 -2 3 -11 12 -20 15 -16 18 -15 37 2 20 18 20 18 20 -93 l0 -112
-107 0 -107 0 35 38 34 37 -40 -37 c-30 -28 -50 -38 -73 -38 -18 0 -32 2 -32
5 0 2 13 27 30 55 41 70 61 110 55 110 -2 0 -14 -18 -25 -41 -12 -23 -23 -39
-25 -37 -2 1 1 29 7 61 9 51 13 57 34 57 15 0 22 -5 18 -13 -3 -8 2 -14 10
-14 8 0 12 5 9 10 -3 5 1 13 8 18 9 5 -19 8 -71 8 -47 -1 -77 -3 -68 -6 15 -4
16 -12 11 -51 -3 -26 -7 -49 -9 -51 -2 -2 -14 20 -26 49 l-22 52 -65 -6 c-36
-3 -73 -2 -80 3 -19 13 -52 -5 -45 -23 4 -11 -1 -13 -23 -10 -15 3 -45 5 -65
5 -40 0 -52 17 -18 26 11 3 20 9 20 14 0 12 2 12 -53 -7 -81 -28 -75 -9 12 35
l83 42 75 -16 c80 -18 152 -14 135 8 -5 7 -17 32 -27 57 -9 25 -19 51 -22 58
-4 9 17 12 87 12 54 0 89 -4 85 -9 -3 -5 -9 -30 -14 -56 -7 -39 -6 -45 6 -41
8 3 21 6 29 6 12 0 14 12 12 53 l-3 52 -103 3 c-75 2 -111 7 -128 19 -20 12
-39 14 -94 9 -69 -6 -70 -6 -70 18 0 13 7 29 15 36 8 7 15 17 15 23 0 5 -9 -2
-20 -16 -13 -16 -20 -40 -20 -66 0 -52 -27 -81 -74 -81 -42 0 -66 29 -66 77 0
26 3 31 18 27 9 -3 5 2 -10 11 -15 8 -34 28 -42 43 -9 15 -15 22 -16 16 0 -6
9 -23 20 -37 11 -14 20 -30 20 -36 0 -13 -51 -21 -122 -18 l-58 2 0 288 0 287
-156 0 -157 0 8 108 c13 177 14 212 4 207 -8 -5 -7 8 7 85 l4 25 -15 -25 c-12
-21 -14 -22 -15 -6 0 18 -1 18 -19 2 -18 -17 -19 -15 -26 54 -11 107 -23 140
-24 65z m329 -585 c0 -5 -20 -10 -45 -10 -25 0 -45 5 -45 10 0 6 20 10 45 10
25 0 45 -4 45 -10z m0 -200 c0 -5 -20 -10 -45 -10 -25 0 -45 5 -45 10 0 6 20
10 45 10 25 0 45 -4 45 -10z m-3 -173 c-2 -6 -22 -12 -45 -14 -33 -3 -42 -1
-42 11 0 12 11 15 45 14 27 0 44 -5 42 -11z m1699 -176 c-3 -5 -17 -87 -31
-182 -35 -241 -27 -219 -85 -219 -28 0 -50 3 -50 8 0 11 -60 352 -67 380 -5
22 -5 22 117 22 69 0 119 -4 116 -9z m-1696 -21 c0 -5 -20 -10 -45 -10 -25 0
-45 5 -45 10 0 6 20 10 45 10 25 0 45 -4 45 -10z m1782 -291 c16 10 25 10 43
1 22 -12 22 -13 7 -51 -18 -46 -29 -49 -38 -11 -10 45 -14 50 -10 10 l5 -38
-53 0 c-52 0 -53 0 -49 28 11 72 10 71 43 59 24 -9 35 -9 52 2z m-1456 -98
c-7 -11 -125 -81 -137 -81 -24 0 1 27 45 50 l29 15 -46 3 c-78 5 -52 22 34 22
44 0 78 -4 75 -9z m-103 -28 c-7 -2 -19 -2 -25 0 -7 3 -2 5 12 5 14 0 19 -2
13 -5z"/>
<path d="M1200 3455 l0 -245 175 0 175 0 0 245 0 245 -175 0 -175 0 0 -245z
m340 0 l0 -235 -165 0 -165 0 0 235 0 235 165 0 165 0 0 -235z"/>
<path d="M2127 3443 c-4 -3 -7 -107 -7 -230 l0 -223 165 0 165 0 0 230 0 230
-158 0 c-87 0 -162 -3 -165 -7z m313 -223 l0 -220 -155 0 -155 0 0 220 0 220
155 0 155 0 0 -220z"/>
<path d="M2160 3220 l0 -170 125 0 125 0 0 170 0 170 -125 0 -125 0 0 -170z
m240 0 l0 -160 -115 0 -115 0 0 160 0 160 115 0 115 0 0 -160z"/>
<path d="M1787 3375 c-15 -9 -37 -13 -47 -10 -14 4 -31 -5 -59 -32 -54 -52
-59 -74 -24 -113 l28 -31 50 24 c28 13 61 28 74 32 21 6 23 5 16 -11 -19 -47
-17 -53 19 -75 42 -24 59 -70 54 -139 l-3 -45 -95 1 -95 1 28 -56 c38 -75 48
-85 85 -76 42 9 108 58 127 95 13 26 14 39 4 95 -14 74 -2 119 29 113 21 -4
28 -48 13 -89 -9 -25 -8 -29 9 -29 14 0 23 16 39 70 53 175 48 201 -55 251
-78 38 -154 48 -197 24z"/>
<path d="M1683 3135 c0 -22 2 -30 4 -17 2 12 2 30 0 40 -3 9 -5 -1 -4 -23z"/>
<path d="M1715 3110 c-4 -6 7 -10 25 -10 18 0 29 4 25 10 -3 6 -15 10 -25 10
-10 0 -22 -4 -25 -10z"/>
<path d="M1696 3077 c3 -10 9 -15 12 -12 3 3 0 11 -7 18 -10 9 -11 8 -5 -6z"/>
<path d="M1145 3060 c3 -5 -9 -16 -27 -23 -18 -8 -46 -29 -62 -46 -29 -30 -29
-31 -8 -31 21 0 22 -2 9 -27 -12 -24 -12 -34 2 -73 19 -55 41 -64 41 -17 0 29
5 34 52 55 30 13 54 18 57 13 4 -5 29 -11 56 -13 l50 -3 5 -40 c8 -59 16 -68
45 -49 13 9 28 14 32 11 8 -5 9 2 16 111 3 51 0 65 -12 70 -9 3 -31 22 -49 41
-22 23 -36 31 -40 24 -5 -8 -13 -9 -22 -3 -20 13 -153 13 -145 0z"/>
<path d="M1686 3015 c-3 -9 -6 -22 -5 -28 0 -7 5 -1 10 12 5 13 8 26 5 28 -2
2 -6 -3 -10 -12z"/>
<path d="M1161 2794 c0 -11 3 -14 6 -6 3 7 2 16 -1 19 -3 4 -6 -2 -5 -13z"/>
<path d="M1251 2794 c0 -11 3 -14 6 -6 3 7 2 16 -1 19 -3 4 -6 -2 -5 -13z"/>
<path d="M1071 2792 c-1 -6 8 -29 19 -49 l20 -38 -1 50 c-1 42 -2 45 -8 20
l-7 -30 -11 30 c-6 17 -12 24 -12 17z"/>
<path d="M1397 2769 c-4 -14 -18 -31 -32 -37 -14 -6 -25 -16 -25 -22 0 -7 7
-4 16 4 8 9 19 16 24 16 13 0 32 38 27 53 -2 7 -7 0 -10 -14z"/>
<path d="M2569 2737 c-15 -34 0 -62 24 -45 9 7 18 24 19 38 4 34 -28 39 -43 7z"/>
<path d="M2920 2693 c-18 -23 -19 -29 -6 -31 24 -5 56 17 56 38 0 28 -25 25
-50 -7z"/>
<path d="M1198 2693 c6 -2 18 -2 25 0 6 3 1 5 -13 5 -14 0 -19 -2 -12 -5z"/>
<path d="M2814 2665 c-12 -31 68 -92 106 -80 11 4 20 15 20 27 0 21 -18 22
-62 3 -13 -5 -17 0 -20 27 -3 36 -33 52 -44 23z"/>
<path d="M2580 2638 c-11 -18 -20 -28 -20 -21 0 18 -29 43 -51 43 -27 0 -24
-27 6 -46 45 -30 137 1 122 40 -10 26 -36 18 -57 -16z"/>
<path d="M1208 2613 c6 -2 18 -2 25 0 6 3 1 5 -13 5 -14 0 -19 -2 -12 -5z"/>
<path d="M2764 2586 c-9 -23 11 -42 61 -61 34 -13 47 -14 65 -5 11 6 19 17 17
23 -6 19 -43 20 -61 1 -9 -9 -18 -15 -19 -13 -1 2 -9 17 -17 33 -18 35 -38 44
-46 22z"/>
<path d="M9106 2520 c-4 -30 -17 -97 -27 -149 -20 -96 -24 -149 -8 -96 16 55
50 256 47 278 -2 12 -8 -3 -12 -33z"/>
<path d="M2040 2526 c0 -2 8 -10 18 -17 15 -13 16 -12 3 4 -13 16 -21 21 -21
13z"/>
<path d="M2745 2490 c-7 -11 12 -50 25 -50 5 0 16 -7 24 -16 9 -8 16 -11 16
-5 0 7 10 9 25 5 27 -7 55 10 55 32 0 19 -44 18 -60 -2 -12 -13 -16 -11 -33
15 -19 31 -41 40 -52 21z"/>
<path d="M1728 2483 c7 -3 16 -2 19 1 4 3 -2 6 -13 5 -11 0 -14 -3 -6 -6z"/>
<path d="M2082 2445 c0 -16 2 -22 5 -12 2 9 2 23 0 30 -3 6 -5 -1 -5 -18z"/>
<path d="M471 2404 c0 -11 3 -14 6 -6 3 7 2 16 -1 19 -3 4 -6 -2 -5 -13z"/>
<path d="M2733 2385 c-3 -9 3 -25 12 -35 24 -26 122 -29 132 -4 9 25 -17 34
-49 18 -20 -10 -28 -11 -28 -3 0 7 -3 9 -7 6 -3 -4 -12 2 -20 13 -17 24 -31
26 -40 5z"/>
<path d="M8656 2348 c3 -13 10 -30 15 -38 7 -13 8 -13 9 0 0 27 -12 60 -22 60
-5 0 -6 -10 -2 -22z"/>
<path d="M1840 2299 l-45 -41 42 32 c37 27 61 51 51 50 -2 0 -23 -19 -48 -41z"/>
<path d="M9460 2265 c-29 -47 -22 -54 9 -9 13 19 21 37 19 40 -3 3 -16 -11
-28 -31z"/>
<path d="M1500 2241 c0 -7 -4 -9 -10 -6 -5 3 -10 1 -10 -4 0 -6 4 -11 9 -11
13 0 25 20 17 27 -3 4 -6 1 -6 -6z"/>
<path d="M8190 2223 c-50 -64 -52 -167 -4 -235 55 -79 163 -110 252 -73 36 16
112 81 112 97 0 5 -15 -8 -32 -28 -59 -67 -163 -93 -241 -60 -50 21 -105 90
-113 143 -7 49 6 107 32 138 16 20 16 20 9 0 -15 -43 -15 -58 0 -25 9 19 25
42 37 51 21 16 21 17 -6 17 -16 0 -34 -10 -46 -25z"/>
<path d="M8345 2183 c6 -60 5 -62 -25 -79 -16 -10 -30 -22 -30 -26 0 -12 10
-10 47 13 35 22 35 23 28 72 -10 78 -27 95 -20 20z"/>
<path d="M1529 2213 c-13 -16 -12 -17 4 -4 9 7 17 15 17 17 0 8 -8 3 -21 -13z"/>
<path d="M8638 2184 c-16 -8 -37 -33 -49 -56 -31 -60 -24 -201 15 -312 19 -52
26 -90 23 -111 -4 -22 1 -47 14 -72 10 -21 25 -56 33 -78 9 -25 15 -33 16 -20
0 12 9 0 20 -29 11 -27 17 -53 14 -58 -7 -10 26 -52 63 -81 l28 -22 -27 33
c-48 58 -60 151 -20 153 12 0 11 3 -5 9 -28 11 -29 24 -5 48 16 16 16 17 -12
27 -72 24 -153 208 -163 371 -7 97 6 143 50 180 28 23 37 26 83 21 29 -3 73
-15 99 -26 25 -11 43 -15 39 -10 -25 41 -163 62 -216 33z m84 -601 c12 -29 15
-50 9 -65 -8 -21 -9 -20 -20 17 -6 22 -12 51 -13 64 -2 14 -9 26 -17 29 -10 3
-11 -2 -6 -19 5 -18 2 -16 -14 9 -12 18 -21 45 -21 60 0 26 0 26 33 -13 17
-21 40 -58 49 -82z"/>
<path d="M8181 2117 c-2 -64 47 -137 114 -168 52 -24 99 -24 151 2 65 31 127
128 105 166 -6 11 -10 3 -14 -27 -7 -56 -52 -110 -111 -134 -41 -18 -52 -19
-94 -7 -73 19 -121 73 -141 158 -8 33 -9 34 -10 10z"/>
<path d="M8898 2107 c59 -69 75 -114 80 -213 5 -107 -10 -189 -41 -222 -17
-18 -18 -22 -4 -16 13 5 20 -1 28 -25 6 -17 15 -31 19 -31 5 0 4 14 -2 30 -8
23 -6 58 8 142 14 91 15 121 6 165 -15 72 -47 135 -91 175 l-35 33 32 -38z"/>
<path d="M9313 2118 c-12 -6 -52 -46 -89 -90 -36 -43 -86 -95 -110 -114 -40
-33 -45 -35 -59 -20 -18 18 -45 21 -45 6 0 -5 10 -10 21 -10 24 0 25 9 -11
-154 -11 -54 -20 -105 -18 -113 2 -9 16 44 32 116 22 100 33 132 47 136 10 3
54 44 98 91 45 47 81 83 81 80 0 -3 -43 -114 -95 -248 -53 -133 -99 -262 -102
-285 -3 -24 -9 -43 -14 -43 -13 0 -29 36 -29 68 0 16 -7 35 -16 43 -13 11 -14
9 -7 -17 13 -45 7 -137 -10 -171 -23 -44 -78 -68 -129 -55 -28 7 -37 7 -30 0
6 -6 31 -13 56 -15 42 -5 48 -3 80 29 19 19 39 52 45 74 9 33 15 40 33 40 13
-1 27 -7 31 -13 4 -7 13 -13 19 -13 7 0 7 4 -1 13 -8 10 -7 29 4 71 20 76 33
99 52 92 8 -3 23 -6 34 -6 11 0 19 -7 19 -16 0 -21 -58 -125 -78 -141 -10 -8
-11 -13 -4 -13 19 0 82 103 89 146 4 23 17 49 33 64 34 32 85 157 116 279 41
167 28 224 -43 189z m55 -47 c5 -48 -32 -189 -81 -312 l-42 -104 -45 2 c-25 0
-37 -1 -27 -4 9 -2 17 -11 17 -20 0 -10 -6 -14 -17 -10 -10 2 -24 6 -32 8 -10
3 -23 -15 -38 -51 -12 -30 -23 -50 -23 -43 0 6 43 122 96 257 52 135 92 251
88 257 -4 7 -3 9 3 6 5 -3 20 7 32 24 31 42 65 37 69 -10z"/>
<path d="M1659 2118 c-5 -18 -6 -38 -1 -34 7 8 12 36 6 36 -2 0 -4 -1 -5 -2z"/>
<path d="M1418 2073 c28 -2 76 -2 105 0 28 2 5 3 -53 3 -58 0 -81 -1 -52 -3z"/>
<path d="M388 2033 c18 -2 45 -2 60 0 15 2 0 4 -33 4 -33 0 -45 -2 -27 -4z"/>
<path d="M7338 1963 c-74 -78 -107 -131 -139 -223 -18 -54 -22 -88 -23 -202
-1 -118 1 -140 16 -155 22 -21 40 -16 224 72 147 70 206 116 240 190 l24 50
-38 7 c-20 3 -66 17 -102 30 -52 19 -70 31 -94 66 -26 37 -31 54 -34 118 -3
47 0 80 7 87 15 15 14 27 -2 27 -8 0 -43 -30 -79 -67z m55 -12 c-8 -69 18
-140 68 -186 44 -39 68 -51 141 -66 26 -6 50 -14 52 -18 10 -15 -34 -89 -70
-120 -39 -32 -224 -126 -299 -152 -22 -7 -46 -18 -54 -23 -22 -17 -41 21 -42
83 -5 235 29 350 137 469 30 34 60 62 64 62 5 0 6 -22 3 -49z"/>
<path d="M1452 2015 c8 -8 118 -8 125 -1 4 3 -24 6 -62 6 -38 0 -66 -2 -63 -5z"/>
<path d="M1398 2003 c7 -3 16 -2 19 1 4 3 -2 6 -13 5 -11 0 -14 -3 -6 -6z"/>
<path d="M7645 1990 c-35 -11 -115 -76 -115 -93 0 -6 19 8 42 31 61 62 123 76
193 42 49 -24 75 -64 75 -117 l0 -39 -40 4 c-47 5 -80 -17 -80 -53 0 -50 51
-60 101 -18 l32 27 -6 -63 c-4 -47 -13 -76 -38 -115 -53 -85 -71 -116 -67
-116 7 0 96 144 107 173 6 16 11 70 10 122 -1 104 -21 162 -69 197 -30 22
-104 31 -145 18z m185 -195 c9 -11 7 -19 -14 -40 -37 -37 -86 -31 -86 11 0 40
73 61 100 29z"/>
<path d="M364 1905 c0 -49 1 -71 3 -48 2 23 2 64 0 90 -2 26 -3 8 -3 -42z"/>
<path d="M1475 1981 c-6 -11 9 -23 19 -14 9 9 7 23 -3 23 -6 0 -12 -4 -16 -9z"/>
<path d="M7666 1928 c-34 -46 -109 -188 -103 -195 4 -3 18 20 32 52 14 32 40
79 58 104 42 58 49 71 43 71 -3 0 -16 -15 -30 -32z"/>
<path d="M1362 1930 c0 -14 2 -19 5 -12 2 6 2 18 0 25 -3 6 -5 1 -5 -13z"/>
<path d="M9510 1940 c0 -6 32 -10 72 -10 39 0 69 2 67 4 -10 9 -139 14 -139 6z"/>
<path d="M1550 1920 c-13 -8 -12 -10 3 -10 9 0 17 5 17 10 0 12 -1 12 -20 0z"/>
<path d="M402 1895 c0 -16 2 -22 5 -12 2 9 2 23 0 30 -3 6 -5 -1 -5 -18z"/>
<path d="M513 1913 c15 -2 37 -2 50 0 12 2 0 4 -28 4 -27 0 -38 -2 -22 -4z"/>
<path d="M1418 1913 c23 -2 59 -2 80 0 20 2 1 4 -43 4 -44 0 -61 -2 -37 -4z"/>
<path d="M1812 1890 c0 -19 2 -27 5 -17 2 9 2 25 0 35 -3 9 -5 1 -5 -18z"/>
<path d="M443 1845 c0 -33 2 -45 4 -27 2 18 2 45 0 60 -2 15 -4 0 -4 -33z"/>
<path d="M546 1891 c-4 -5 -2 -12 3 -15 5 -4 12 -2 15 3 4 5 2 12 -3 15 -5 4
-12 2 -15 -3z"/>
<path d="M1592 1880 c0 -14 2 -19 5 -12 2 6 2 18 0 25 -3 6 -5 1 -5 -13z"/>
<path d="M1393 1883 c9 -2 23 -2 30 0 6 3 -1 5 -18 5 -16 0 -22 -2 -12 -5z"/>
<path d="M662 1850 c0 -14 2 -19 5 -12 2 6 2 18 0 25 -3 6 -5 1 -5 -13z"/>
<path d="M943 1843 c43 -2 110 -2 150 0 40 1 5 3 -78 3 -82 0 -115 -2 -72 -3z"/>
<path d="M1488 1843 c6 -2 18 -2 25 0 6 3 1 5 -13 5 -14 0 -19 -2 -12 -5z"/>
<path d="M483 1823 c9 -2 25 -2 35 0 9 3 1 5 -18 5 -19 0 -27 -2 -17 -5z"/>
<path d="M1508 1783 c7 -3 16 -2 19 1 4 3 -2 6 -13 5 -11 0 -14 -3 -6 -6z"/>
<path d="M1610 1785 c0 -5 5 -17 10 -25 5 -8 10 -10 10 -5 0 6 -5 17 -10 25
-5 8 -10 11 -10 5z"/>
<path d="M1398 1773 c7 -3 16 -2 19 1 4 3 -2 6 -13 5 -11 0 -14 -3 -6 -6z"/>
<path d="M8101 1753 c-1 -7 -9 -13 -18 -13 -15 0 -16 -2 -3 -10 18 -11 35 2
27 22 -4 9 -6 10 -6 1z"/>
<path d="M563 1743 c9 -2 23 -2 30 0 6 3 -1 5 -18 5 -16 0 -22 -2 -12 -5z"/>
<path d="M1362 1730 c0 -14 2 -19 5 -12 2 6 2 18 0 25 -3 6 -5 1 -5 -13z"/>
<path d="M8136 1741 c-3 -5 3 -11 15 -14 16 -4 18 -3 8 9 -13 16 -16 17 -23 5z"/>
<path d="M451 1724 c0 -11 3 -14 6 -6 3 7 2 16 -1 19 -3 4 -6 -2 -5 -13z"/>
<path d="M8048 1718 c3 -14 2 -19 -6 -14 -7 4 -12 1 -12 -8 0 -9 -7 -16 -15
-16 -16 0 -29 -39 -22 -67 3 -11 5 -6 6 13 1 21 10 37 31 52 28 21 42 62 21
62 -5 0 -7 -10 -3 -22z"/>
<path d="M691 1725 c-1 -21 14 -34 29 -25 13 8 13 10 -2 10 -9 0 -19 6 -21 13
-3 6 -6 8 -6 2z"/>
<path d="M8584 1690 c-15 -22 -25 -42 -23 -44 2 -2 16 16 31 40 34 55 28 58
-8 4z"/>
<path d="M373 1645 c0 -44 2 -61 4 -37 2 23 2 59 0 80 -2 20 -4 1 -4 -43z"/>
<path d="M1403 1713 c9 -2 23 -2 30 0 6 3 -1 5 -18 5 -16 0 -22 -2 -12 -5z"/>
<path d="M832 1685 c0 -16 2 -22 5 -12 2 9 2 23 0 30 -3 6 -5 -1 -5 -18z"/>
<path d="M1548 1693 c7 -3 16 -2 19 1 4 3 -2 6 -13 5 -11 0 -14 -3 -6 -6z"/>
<path d="M736 1681 c-4 -5 -2 -12 3 -15 5 -4 12 -2 15 3 4 5 2 12 -3 15 -5 4
-12 2 -15 -3z"/>
<path d="M1378 1683 c6 -2 18 -2 25 0 6 3 1 5 -13 5 -14 0 -19 -2 -12 -5z"/>
<path d="M1483 1683 c9 -2 23 -2 30 0 6 3 -1 5 -18 5 -16 0 -22 -2 -12 -5z"/>
<path d="M8180 1681 c0 -7 -7 -11 -15 -8 -8 4 -17 2 -21 -4 -3 -6 -12 -8 -20
-5 -8 3 -14 1 -14 -5 0 -6 11 -8 29 -4 23 5 32 2 40 -13 6 -11 7 -22 4 -26 -3
-3 -1 -6 5 -6 7 0 9 13 5 38 -6 38 -13 56 -13 33z"/>
<path d="M8066 1636 c7 -19 20 -21 30 -3 4 6 4 9 -1 5 -4 -4 -14 -3 -22 4 -11
8 -12 7 -7 -6z"/>
<path d="M8359 1613 l-34 -38 38 34 c34 33 42 41 34 41 -2 0 -19 -17 -38 -37z"/>
<path d="M8840 1629 c-49 -17 -51 -19 -15 -13 22 3 51 12 65 19 34 19 16 17
-50 -6z"/>
<path d="M479 1627 c4 -4 37 -7 72 -5 l64 3 -72 5 c-40 3 -68 1 -64 -3z"/>
<path d="M658 1633 c7 -3 16 -2 19 1 4 3 -2 6 -13 5 -11 0 -14 -3 -6 -6z"/>
<path d="M1480 1630 c-19 -4 17 -5 80 -2 63 3 117 6 119 8 8 7 -163 2 -199 -6z"/>
<path d="M413 1550 c0 -47 2 -66 4 -42 2 23 2 61 0 85 -2 23 -4 4 -4 -43z"/>
<path d="M621 1614 c0 -11 3 -14 6 -6 3 7 2 16 -1 19 -3 4 -6 -2 -5 -13z"/>
<path d="M1708 1623 c7 -3 16 -2 19 1 4 3 -2 6 -13 5 -11 0 -14 -3 -6 -6z"/>
<path d="M8045 1619 c-4 -6 -5 -12 -2 -15 2 -3 7 2 10 11 7 17 1 20 -8 4z"/>
<path d="M8551 1614 c0 -11 3 -14 6 -6 3 7 2 16 -1 19 -3 4 -6 -2 -5 -13z"/>
<path d="M663 1613 c9 -2 25 -2 35 0 9 3 1 5 -18 5 -19 0 -27 -2 -17 -5z"/>
<path d="M8129 1613 c-9 -2 -19 -16 -22 -31 -7 -35 0 -42 9 -8 8 32 24 34 24
4 0 -13 4 -18 8 -12 16 23 43 24 52 1 5 -12 9 -15 9 -7 1 25 -13 37 -39 36
-15 -1 -24 4 -22 12 1 6 1 11 0 11 -2 -1 -10 -3 -19 -6z"/>
<path d="M8210 1616 c0 -2 12 -12 28 -21 l27 -18 -19 21 c-17 20 -36 29 -36
18z"/>
<path d="M1824 1515 c0 -49 1 -71 3 -48 2 23 2 64 0 90 -2 26 -3 8 -3 -42z"/>
<path d="M7929 1579 l-24 -20 28 17 c15 9 27 18 27 20 0 8 -8 4 -31 -17z"/>
<path d="M8031 1580 c0 -8 4 -24 9 -35 5 -13 9 -14 9 -5 0 8 -4 24 -9 35 -5
13 -9 14 -9 5z"/>
<path d="M8054 1579 c-3 -6 -1 -16 5 -22 8 -8 11 -5 11 11 0 24 -5 28 -16 11z"/>
<path d="M8521 1557 c-24 -29 -24 -30 -2 -18 12 7 25 19 28 27 10 26 -1 22
-26 -9z"/>
<path d="M728 1573 c7 -3 16 -2 19 1 4 3 -2 6 -13 5 -11 0 -14 -3 -6 -6z"/>
<path d="M1427 1572 c6 -4 14 -34 16 -67 l3 -60 2 68 c2 58 0 67 -15 67 -12 0
-14 -3 -6 -8z"/>
<path d="M1378 1563 c7 -3 16 -2 19 1 4 3 -2 6 -13 5 -11 0 -14 -3 -6 -6z"/>
<path d="M8003 1554 c17 -21 17 -22 0 -28 -15 -6 -15 -8 -3 -16 22 -14 30 -12
30 8 0 11 -10 27 -22 38 l-23 19 18 -21z"/>
<path d="M8251 1537 c-13 -40 -45 -72 -60 -62 -6 3 -11 1 -11 -4 0 -21 29 -11
53 19 26 31 43 68 34 76 -3 3 -10 -10 -16 -29z"/>
<path d="M8304 1538 c-9 -17 -19 -66 -21 -110 -6 -75 -7 -78 -31 -78 -14 0
-22 -3 -19 -7 11 -10 536 3 547 14 3 3 -107 2 -244 -2 l-249 -7 5 79 c3 44 13
94 22 111 9 18 14 32 12 32 -3 0 -13 -14 -22 -32z"/>
<path d="M8830 1558 c-25 -6 -40 -12 -34 -15 5 -2 37 3 70 11 32 8 48 14 34
14 -14 0 -45 -5 -70 -10z"/>
<path d="M698 1553 c7 -3 16 -2 19 1 4 3 -2 6 -13 5 -11 0 -14 -3 -6 -6z"/>
<path d="M1318 1553 c7 -3 16 -2 19 1 4 3 -2 6 -13 5 -11 0 -14 -3 -6 -6z"/>
<path d="M1208 1543 c12 -2 32 -2 45 0 12 2 2 4 -23 4 -25 0 -35 -2 -22 -4z"/>
<path d="M8161 1545 c1 -22 16 -48 22 -38 3 5 0 19 -8 29 -8 10 -14 15 -14 9z"/>
<path d="M870 1531 c0 -6 4 -13 10 -16 6 -3 7 1 4 9 -7 18 -14 21 -14 7z"/>
<path d="M1310 1530 c0 -5 5 -10 10 -10 6 0 10 5 10 10 0 6 -4 10 -10 10 -5 0
-10 -4 -10 -10z"/>
<path d="M8208 1517 c-3 -19 -2 -25 4 -19 6 6 8 18 6 28 -3 14 -5 12 -10 -9z"/>
<path d="M622 1510 c0 -14 2 -19 5 -12 2 6 2 18 0 25 -3 6 -5 1 -5 -13z"/>
<path d="M1410 1495 c8 -10 10 -16 3 -12 -6 4 -14 3 -18 -3 -3 -6 3 -10 15
-10 25 0 25 30 0 38 -13 5 -13 3 0 -13z"/>
<path d="M693 1493 c9 -2 23 -2 30 0 6 3 -1 5 -18 5 -16 0 -22 -2 -12 -5z"/>
<path d="M8442 1461 c-17 -34 -17 -42 -6 -67 l14 -29 -6 31 c-3 18 1 48 10 68
20 48 11 46 -12 -3z"/>
<path d="M1172 1470 c0 -14 2 -19 5 -12 2 6 2 18 0 25 -3 6 -5 1 -5 -13z"/>
<path d="M8043 1476 c6 -14 -12 -41 -33 -49 -8 -3 1 -6 20 -6 19 0 42 4 50 10
12 8 10 9 -9 4 -27 -8 -26 12 2 29 12 8 22 5 40 -12 24 -23 52 -29 61 -13 4 5
-3 7 -14 4 -13 -4 -30 2 -43 14 -25 23 -81 37 -74 19z"/>
<path d="M8117 1479 c7 -7 15 -10 18 -7 3 3 -2 9 -12 12 -14 6 -15 5 -6 -5z"/>
<path d="M7843 1445 c0 -22 2 -30 4 -17 2 12 2 30 0 40 -3 9 -5 -1 -4 -23z"/>
<path d="M631 1454 c0 -11 3 -14 6 -6 3 7 2 16 -1 19 -3 4 -6 -2 -5 -13z"/>
<path d="M1258 1463 c12 -2 30 -2 40 0 9 3 -1 5 -23 4 -22 0 -30 -2 -17 -4z"/>
<path d="M748 1453 c7 -3 16 -2 19 1 4 3 -2 6 -13 5 -11 0 -14 -3 -6 -6z"/>
<path d="M1213 1443 c15 -2 39 -2 55 0 15 2 2 4 -28 4 -30 0 -43 -2 -27 -4z"/>
<path d="M2208 1443 c7 -3 16 -2 19 1 4 3 -2 6 -13 5 -11 0 -14 -3 -6 -6z"/>
<path d="M384 1355 c0 -49 1 -71 3 -48 2 23 2 64 0 90 -2 26 -3 8 -3 -42z"/>
<path d="M1450 1415 c0 -7 11 -10 30 -7 17 2 30 5 30 7 0 2 -13 5 -30 7 -19 3
-30 0 -30 -7z"/>
<path d="M1552 1416 c7 -8 15 -12 17 -11 5 6 -10 25 -20 25 -5 0 -4 -6 3 -14z"/>
<path d="M653 1413 c9 -2 23 -2 30 0 6 3 -1 5 -18 5 -16 0 -22 -2 -12 -5z"/>
<path d="M738 1413 c12 -2 30 -2 40 0 9 3 -1 5 -23 4 -22 0 -30 -2 -17 -4z"/>
<path d="M1426 1405 c4 -8 8 -15 10 -15 2 0 4 7 4 15 0 8 -4 15 -10 15 -5 0
-7 -7 -4 -15z"/>
<path d="M1397 1404 c-8 -14 8 -37 22 -33 8 3 8 10 -2 23 -8 11 -17 15 -20 10z"/>
<path d="M8390 1380 c-6 -11 -8 -20 -6 -20 3 0 10 9 16 20 6 11 8 20 6 20 -3
0 -10 -9 -16 -20z"/>
<path d="M1300 1370 c14 -4 32 -8 40 -9 13 -1 13 0 0 9 -8 5 -26 9 -40 9 l-25
-1 25 -8z"/>
<path d="M1633 1373 c9 -2 23 -2 30 0 6 3 -1 5 -18 5 -16 0 -22 -2 -12 -5z"/>
<path d="M7860 1376 c0 -2 8 -10 18 -17 15 -13 16 -12 3 4 -13 16 -21 21 -21
13z"/>
<path d="M9025 1370 c3 -6 49 -10 102 -10 53 0 94 2 92 4 -10 9 -199 15 -194
6z"/>
<path d="M9277 1363 c18 -2 50 -2 70 0 21 2 7 4 -32 4 -38 0 -55 -2 -38 -4z"/>
<path d="M1218 1353 c12 -2 32 -2 45 0 12 2 2 4 -23 4 -25 0 -35 -2 -22 -4z"/>
<path d="M1018 1333 c12 -2 30 -2 40 0 9 3 -1 5 -23 4 -22 0 -30 -2 -17 -4z"/>
<path d="M1433 1332 c-14 -2 -23 -10 -22 -20 0 -11 3 -12 6 -4 2 6 9 12 14 12
6 0 8 -4 4 -9 -7 -13 15 -26 25 -15 14 16 -4 39 -27 36z"/>
<path d="M7818 1333 c-21 -2 -38 -9 -38 -15 0 -6 10 -7 28 -3 15 4 115 11 222
15 l195 7 -185 0 c-102 0 -202 -2 -222 -4z"/>
<path d="M1171 1314 c0 -11 3 -14 6 -6 3 7 2 16 -1 19 -3 4 -6 -2 -5 -13z"/>
<path d="M1480 1321 c0 -6 4 -13 10 -16 6 -3 7 1 4 9 -7 18 -14 21 -14 7z"/>
<path d="M948 1313 c18 -2 45 -2 60 0 15 2 0 4 -33 4 -33 0 -45 -2 -27 -4z"/>
<path d="M1834 1225 c0 -55 1 -76 3 -47 2 29 2 74 0 100 -2 26 -3 2 -3 -53z"/>
<path d="M8003 1303 c15 -2 39 -2 55 0 15 2 2 4 -28 4 -30 0 -43 -2 -27 -4z"/>
<path d="M1328 1293 c7 -3 16 -2 19 1 4 3 -2 6 -13 5 -11 0 -14 -3 -6 -6z"/>
<path d="M1228 1283 c7 -3 16 -2 19 1 4 3 -2 6 -13 5 -11 0 -14 -3 -6 -6z"/>
<path d="M7972 1232 c1 -53 2 -54 5 -12 3 24 9 47 15 51 5 4 3 9 -6 12 -14 5
-16 -2 -14 -51z"/>
<path d="M8035 1270 c12 -4 27 -15 34 -24 13 -15 15 -15 27 1 8 11 13 13 14 6
0 -22 20 -14 20 7 0 18 -6 20 -57 19 -41 0 -52 -3 -38 -9z"/>
<path d="M423 1205 c0 -38 2 -53 4 -32 2 20 2 52 0 70 -2 17 -4 1 -4 -38z"/>
<path d="M1298 1263 c7 -3 16 -2 19 1 4 3 -2 6 -13 5 -11 0 -14 -3 -6 -6z"/>
<path d="M1471 1256 c-21 -12 -22 -14 -5 -20 10 -4 15 -4 11 0 -4 4 1 13 11
20 22 17 14 17 -17 0z"/>
<path d="M7940 1261 c0 -7 -4 -10 -9 -6 -15 9 -25 -15 -12 -28 9 -9 10 -7 5 7
-5 13 -4 17 4 12 12 -7 28 12 18 21 -3 4 -6 1 -6 -6z"/>
<path d="M2097 1128 c-20 -68 -41 -150 -47 -183 -27 -150 -21 -548 9 -578 6
-6 11 -22 11 -37 0 -22 -9 -29 -69 -53 -73 -30 -109 -52 -101 -61 6 -6 132 9
208 25 l54 11 -7 59 c-5 40 -3 59 4 59 7 0 11 28 11 79 0 44 7 115 15 158 17
92 66 237 75 226 4 -5 22 -46 40 -93 47 -122 169 -360 185 -360 7 0 15 -8 18
-18 2 -9 8 -24 11 -33 5 -12 -6 -25 -42 -48 -27 -17 -58 -41 -68 -53 -19 -21
-19 -21 11 -15 60 11 205 69 205 82 0 7 -7 31 -15 54 -8 23 -14 54 -14 69 1
15 -15 72 -34 127 -42 121 -73 292 -92 519 -15 179 -24 203 -57 160 -20 -25
-45 -34 -32 -11 6 9 4 9 -7 1 -20 -15 -70 -17 -66 -2 2 12 -78 13 -116 2 -13
-4 -20 1 -24 15 -12 46 -31 16 -66 -101z"/>
<path d="M2329 1233 c-13 -16 -12 -17 4 -4 16 13 21 21 13 21 -2 0 -10 -8 -17
-17z"/>
<path d="M9193 1243 c26 -2 67 -2 90 0 23 2 2 3 -48 3 -49 0 -68 -1 -42 -3z"/>
<path d="M9354 1240 c16 -5 54 -33 85 -62 l55 -53 -53 63 c-45 53 -58 62 -84
61 l-32 -1 29 -8z"/>
<path d="M2349 1223 c-13 -16 -12 -17 4 -4 16 13 21 21 13 21 -2 0 -10 -8 -17
-17z"/>
<path d="M9053 1233 c15 -2 37 -2 50 0 12 2 0 4 -28 4 -27 0 -38 -2 -22 -4z"/>
<path d="M8908 1223 c-40 -4 -46 -11 -26 -31 14 -14 4 -18 -64 -27 -27 -3 -48
-10 -48 -16 0 -9 65 -72 101 -97 38 -27 16 4 -32 46 l-50 42 26 10 c43 16 68
13 60 -7 -14 -33 -10 -47 15 -59 47 -22 75 -24 33 -2 -47 24 -54 45 -23 73 19
17 21 17 43 -1 12 -10 9 -4 -7 14 -16 17 -28 34 -25 36 2 2 29 8 59 14 49 9
51 10 15 9 -22 0 -57 -2 -77 -4z"/>
<path d="M1313 1213 c9 -2 23 -2 30 0 6 3 -1 5 -18 5 -16 0 -22 -2 -12 -5z"/>
<path d="M868 1204 c-5 -4 -8 -24 -8 -44 l0 -37 -102 -11 -103 -11 104 4 c57
3 108 8 113 13 5 5 8 28 6 52 -2 23 -6 38 -10 34z"/>
<path d="M1802 1185 c0 -16 2 -22 5 -12 2 9 2 23 0 30 -3 6 -5 -1 -5 -18z"/>
<path d="M7935 1200 c3 -6 1 -10 -6 -10 -7 0 -10 -3 -6 -6 3 -3 13 -2 22 4 16
8 16 9 1 15 -10 4 -15 3 -11 -3z"/>
<path d="M681 1196 c2 -2 36 -6 74 -10 48 -4 65 -3 55 4 -13 9 -139 15 -129 6z"/>
<path d="M394 1105 c0 -49 1 -71 3 -48 2 23 2 64 0 90 -2 26 -3 8 -3 -42z"/>
<path d="M715 1170 l-40 -7 43 -2 c23 0 42 4 42 9 0 6 -1 9 -2 9 -2 -1 -21 -5
-43 -9z"/>
<path d="M705 1139 c-13 -6 0 -7 40 -3 33 4 62 8 64 10 9 8 -85 2 -104 -7z"/>
<path d="M8975 1110 c10 -11 20 -20 23 -20 3 0 -3 9 -13 20 -10 11 -20 20 -23
20 -3 0 3 -9 13 -20z"/>
<path d="M1373 1113 c15 -2 37 -2 50 0 12 2 0 4 -28 4 -27 0 -38 -2 -22 -4z"/>
<path d="M1288 1093 c12 -2 32 -2 45 0 12 2 2 4 -23 4 -25 0 -35 -2 -22 -4z"/>
<path d="M1793 1093 c9 -2 25 -2 35 0 9 3 1 5 -18 5 -19 0 -27 -2 -17 -5z"/>
<path d="M1668 1083 c12 -2 32 -2 45 0 12 2 2 4 -23 4 -25 0 -35 -2 -22 -4z"/>
<path d="M1538 1073 c12 -2 32 -2 45 0 12 2 2 4 -23 4 -25 0 -35 -2 -22 -4z"/>
<path d="M9030 1043 c18 -24 35 -43 37 -43 7 0 -35 56 -54 71 -9 8 -2 -5 17
-28z"/>
<path d="M1393 1063 c15 -2 37 -2 50 0 12 2 0 4 -28 4 -27 0 -38 -2 -22 -4z"/>
<path d="M1263 1053 c15 -2 37 -2 50 0 12 2 0 4 -28 4 -27 0 -38 -2 -22 -4z"/>
<path d="M8980 1050 c8 -5 20 -10 25 -10 6 0 3 5 -5 10 -8 5 -19 10 -25 10 -5
0 -3 -5 5 -10z"/>
<path d="M1113 1043 c15 -2 37 -2 50 0 12 2 0 4 -28 4 -27 0 -38 -2 -22 -4z"/>
<path d="M983 1033 c15 -2 37 -2 50 0 12 2 0 4 -28 4 -27 0 -38 -2 -22 -4z"/>
<path d="M848 1023 c12 -2 32 -2 45 0 12 2 2 4 -23 4 -25 0 -35 -2 -22 -4z"/>
<path d="M698 1013 c12 -2 32 -2 45 0 12 2 2 4 -23 4 -25 0 -35 -2 -22 -4z"/>
<path d="M563 1003 c15 -2 37 -2 50 0 12 2 0 4 -28 4 -27 0 -38 -2 -22 -4z"/>
<path d="M418 993 c12 -2 32 -2 45 0 12 2 2 4 -23 4 -25 0 -35 -2 -22 -4z"/>
<path d="M1401 565 c-18 -8 -37 -13 -41 -10 -4 3 -13 -2 -20 -10 -15 -18 -71
-20 -89 -2 -14 12 -14 14 5 -55 3 -9 -2 -29 -12 -43 -18 -28 -9 -49 25 -58 24
-6 48 7 32 17 -6 4 -11 11 -11 17 0 12 31 11 50 -1 13 -8 12 -11 -5 -24 -19
-15 -19 -15 11 -16 16 0 39 7 50 15 12 9 42 14 79 15 40 0 74 7 99 19 34 18
66 19 66 2 0 -3 -21 -17 -48 -31 -65 -34 -69 -63 -11 -82 50 -17 72 -43 49
-58 -13 -8 -13 -10 1 -10 9 0 22 7 29 15 16 19 -9 50 -57 70 -18 8 -33 19 -33
24 0 6 23 22 50 36 44 23 49 28 40 45 -6 11 -21 22 -34 26 -14 3 -29 18 -36
35 -27 63 -120 95 -189 64z"/>
</g>
</svg>
