<svg width="304" height="304" viewBox="0 0 304 304" fill="none" xmlns="http://www.w3.org/2000/svg">
<path d="M4.59034 4.43303C79.2303 -0.166971 150.33 0.133029 296.23 7.81303M4.27034 6.79303C90.6503 4.19303 171.71 7.69303 297.89 5.61303M296.81 7.29303C297.51 68.793 300.95 125.033 302.45 297.413M300.27 6.93303C301.69 94.553 302.29 188.333 298.31 301.393M296.57 298.393C212.23 301.053 125.75 299.353 5.21034 297.013M297.03 299.933C221.35 295.433 148.55 296.413 4.97034 300.633M5.09034 302.773C-0.569662 219.213 0.690338 146.373 6.93034 8.57303M3.19034 301.533C7.03034 241.453 5.31034 179.633 2.93034 5.65303" stroke="black" stroke-width="2" stroke-linecap="round"/>
</svg>
