<svg width="429" height="291" viewBox="0 0 429 291" fill="none" xmlns="http://www.w3.org/2000/svg">
<path d="M308.631 209.174C308.947 210.543 308.737 211.807 308.737 213.176C308.21 213.597 307.578 213.913 308.21 214.65C308.316 215.703 308.105 216.756 307.789 217.704C306.526 217.915 306.736 218.652 307.052 219.494C306.947 219.705 306.841 219.915 306.736 220.126C306.315 219.81 305.789 218.862 305.367 220.126C305.157 220.653 305.367 221.39 304.841 221.706C303.577 222.338 303.788 223.496 303.683 224.549L303.577 224.654C301.998 225.391 300.735 226.866 298.945 227.287C297.997 227.498 298.208 228.235 298.102 228.867C297.892 228.972 297.681 229.077 297.471 229.183C297.365 229.288 297.26 229.393 297.155 229.499C297.049 229.604 296.839 229.604 296.733 229.709C295.996 229.604 295.681 230.025 295.681 230.657C295.259 231.499 294.733 232.131 294.101 232.658C293.154 232.658 292.311 232.552 291.469 233.079C290.942 233.29 290.1 232.974 289.995 233.711C289.784 234.659 290.627 234.659 291.258 234.869C291.89 235.08 291.679 235.922 292.206 236.238C291.679 240.556 291.048 244.874 289.152 248.875C287.573 252.14 283.361 253.825 280.203 252.245C279.36 251.824 278.939 250.981 278.518 250.139C277.465 247.822 277.254 245.295 277.044 242.767C276.728 238.344 276.728 233.921 277.57 229.604C278.307 226.129 279.676 223.391 283.467 222.127C285.151 221.6 286.731 220.863 288.31 220.021C289.995 219.073 290.837 217.809 291.153 216.124C291.469 214.545 291.574 212.965 291.785 211.385C292.101 208.437 291.258 205.699 290.1 203.066C290.1 201.908 290.205 200.855 291.89 200.328C290.521 199.907 289.468 200.012 288.626 199.802C287.047 199.275 285.362 198.854 283.783 199.17C283.572 199.17 283.361 199.275 283.151 199.275C279.466 198.643 278.307 200.96 278.729 204.856C278.729 205.067 278.729 205.172 278.623 205.383C278.097 205.593 277.781 205.909 277.57 206.436C276.833 206.436 276.096 206.436 276.096 207.384C275.886 207.489 275.57 207.489 275.57 207.594C275.57 208.016 275.886 207.805 276.096 207.91C276.412 207.91 276.728 207.91 277.044 207.91C277.044 208.332 277.149 208.647 277.465 208.858C277.57 209.279 277.465 209.595 277.149 209.911C276.728 209.911 276.096 209.806 275.991 210.016C274.727 211.491 272.832 211.701 271.253 212.544C270.305 212.965 269.358 213.281 268.199 213.808C269.042 214.334 269.779 214.229 270.516 214.334C270.726 215.598 269.568 216.124 269.147 217.177C267.778 216.756 266.409 216.44 265.251 215.598C263.566 214.439 263.145 212.544 262.408 210.859C262.619 210.859 262.724 210.859 262.935 210.754C263.251 210.648 263.567 210.543 263.567 210.122C263.567 210.016 263.356 209.911 263.251 209.911C262.935 209.806 262.619 210.016 262.514 210.332C262.514 210.438 262.408 210.648 262.408 210.754C261.566 210.332 262.303 209.069 261.355 208.753C261.039 208.332 260.934 207.805 261.039 207.278C262.303 206.752 262.092 206.015 261.355 205.278C261.039 202.645 262.303 200.328 263.567 198.222C265.356 195.273 267.357 192.43 269.989 190.218C274.096 186.533 279.044 184.321 284.73 184.111C287.784 184.005 290.732 183.795 293.68 184.532C295.891 185.058 297.576 186.217 298.945 187.691C301.366 190.324 303.472 193.167 305.051 196.537C304.525 197.485 304.104 198.432 303.577 199.486C304.63 199.696 305.367 200.117 306.315 200.012C306.42 200.117 306.526 200.328 306.631 200.433C306.42 201.171 306.631 201.592 307.368 201.697C307.368 201.908 307.368 202.013 307.368 202.224C306.21 202.118 305.262 202.855 303.893 202.329C304.42 203.593 305.789 203.593 305.999 204.751C306.21 206.647 306.42 206.647 308.421 206.752C308.421 207.384 308.421 208.016 308.421 208.647C308.21 208.753 308 208.858 307.789 208.858C307.789 208.963 307.894 209.069 307.894 209.069C308.21 209.069 308.316 208.963 308.526 208.753H308.631V209.174ZM293.154 187.902C291.89 187.27 290.521 187.375 289.152 187.691C290.1 188.007 291.048 188.323 291.89 188.955C293.153 189.903 293.259 189.06 293.259 188.112C293.469 188.007 293.68 187.902 293.891 187.796C293.891 187.691 293.785 187.586 293.785 187.586C293.469 187.48 293.259 187.691 293.154 187.902ZM278.307 200.117C278.307 199.696 278.097 199.591 277.886 199.591C277.781 199.591 277.465 199.696 277.465 199.802C277.36 200.117 277.57 200.223 277.781 200.328C277.992 200.433 278.202 200.328 278.307 200.117Z" fill="#89AB69"/>
<path d="M290.521 267.936C290.521 271.622 287.994 274.571 284.098 275.097C283.045 275.203 281.992 276.045 280.728 275.203C278.939 274.044 277.464 272.675 276.622 270.674C275.464 267.726 276.517 264.145 278.833 262.039C280.623 260.354 282.834 260.143 285.045 259.933C286.52 259.828 287.783 260.775 288.415 261.723C289.678 263.303 290.626 265.409 290.521 267.936Z" fill="#89AB69"/>
<path d="M262.408 211.175C263.145 212.86 263.566 214.65 265.251 215.914C266.409 216.756 267.778 217.072 269.146 217.493C269.568 216.546 270.726 215.914 270.515 214.65C271.252 214.229 271.463 213.702 271.252 212.86C272.832 212.017 274.727 211.807 275.99 210.332C276.201 210.122 276.833 210.227 277.149 210.227C277.149 212.544 275.885 214.334 274.622 216.124C273.463 217.915 271.463 218.125 269.568 218.336C265.356 218.652 263.355 216.124 261.987 213.07C261.46 211.912 260.723 210.648 261.249 209.279C262.197 209.49 261.46 210.754 262.408 211.175Z" fill="#94B278"/>
<path d="M308.209 207.173C306.209 207.068 305.998 207.068 305.787 205.172C305.577 203.909 304.313 204.014 303.682 202.75C305.05 203.277 306.103 202.54 307.156 202.645C308.209 203.909 308.42 205.488 308.209 207.173Z" fill="#9BB982"/>
<path d="M283.678 199.38C285.257 199.064 286.942 199.591 288.521 200.012C289.364 200.223 290.416 200.223 291.785 200.539C290.101 200.96 289.995 202.118 289.995 203.277C288.311 201.381 286.099 200.223 283.678 199.38Z" fill="#94B278"/>
<path d="M292.1 236.343C291.573 236.027 291.784 235.185 291.152 234.974C290.52 234.764 289.678 234.658 289.888 233.816C290.099 233.184 290.941 233.5 291.362 233.184C292.205 232.763 293.152 232.868 293.995 232.763C293.784 234.237 292.942 235.29 292.1 236.343Z" fill="#9BB982"/>
<path d="M298.207 228.972C298.312 228.34 298.102 227.603 299.049 227.392C300.839 226.971 301.998 225.497 303.682 224.76C303.788 225.076 303.682 225.497 303.472 225.708C302.313 227.077 300.734 227.919 299.471 228.972C299.049 229.288 298.523 229.077 298.207 228.972Z" fill="#9BB982"/>
<path d="M278.623 205.067C278.202 201.065 279.36 198.854 283.045 199.486C281.045 200.118 279.887 201.592 279.255 203.487C279.044 204.014 279.044 204.646 278.623 205.067Z" fill="#94B278"/>
<path d="M303.682 224.549C303.787 223.496 303.576 222.338 304.84 221.706C305.366 221.39 305.156 220.653 305.366 220.126C305.788 218.862 306.314 219.915 306.735 220.126C306.209 221.916 305.261 223.496 303.682 224.549Z" fill="#9BB982"/>
<path d="M306.21 200.328C305.263 200.433 304.42 200.012 303.473 199.801C303.999 198.748 304.526 197.801 304.947 196.853C305.789 197.801 306.21 198.959 306.21 200.328Z" fill="#9BB982"/>
<path d="M277.466 206.647C277.676 206.12 277.992 205.804 278.519 205.594C278.308 206.857 278.098 208.016 277.361 209.069C277.045 208.858 276.939 208.437 276.939 208.121C277.15 207.594 277.361 207.068 277.466 206.647Z" fill="#94B278"/>
<path d="M261.355 205.594C261.987 206.436 262.303 207.173 261.039 207.594C260.934 206.857 261.039 206.225 261.355 205.594Z" fill="#94B278"/>
<path d="M307.052 219.494C306.736 218.652 306.525 217.809 307.789 217.704C307.894 218.441 307.683 219.073 307.052 219.494Z" fill="#9BB982"/>
<path d="M308.209 214.65C307.472 213.913 308.209 213.597 308.736 213.176C308.736 213.702 308.736 214.229 308.209 214.65Z" fill="#9BB982"/>
<path d="M308.314 209.069C308.314 208.437 308.314 207.805 308.314 207.173C309.051 207.7 308.841 208.437 308.63 209.174H308.525L308.314 209.069Z" fill="#9BB982"/>
<path d="M307.262 202.013C306.42 201.908 306.314 201.381 306.525 200.749C306.946 201.065 307.262 201.486 307.262 202.013Z" fill="#9BB982"/>
<path d="M295.68 230.762C295.68 230.025 296.101 229.709 296.733 229.814C296.627 230.446 296.311 230.762 295.68 230.762Z" fill="#9BB982"/>
<path d="M297.26 229.604C297.365 229.498 297.47 229.288 297.576 229.288C297.576 229.498 297.47 229.604 297.26 229.604Z" fill="#9BB982"/>
<path d="M271.147 212.86C271.463 213.702 271.147 214.229 270.41 214.65C269.673 214.545 268.936 214.65 268.094 214.124C269.252 213.597 270.2 213.281 271.147 212.86Z" fill="#9BB982"/>
<path d="M293.259 188.007C293.153 188.955 293.153 189.902 291.89 188.849C291.048 188.218 290.1 188.007 289.152 187.586C290.521 187.27 291.89 187.164 293.153 187.796L293.259 188.007Z" fill="#9BB982"/>
<path d="M277.464 206.647C277.254 207.173 277.148 207.594 276.938 208.121C276.622 208.121 276.306 208.121 275.99 208.121C275.99 207.91 275.99 207.805 275.99 207.594C276.096 206.541 276.727 206.541 277.464 206.647Z" fill="#85A865"/>
<path d="M262.408 211.175C262.408 211.069 262.408 210.859 262.514 210.754C262.619 210.438 262.935 210.227 263.251 210.332C263.356 210.332 263.566 210.543 263.566 210.543C263.566 210.964 263.251 211.069 262.935 211.175C262.724 211.069 262.513 211.069 262.408 211.175Z" fill="#94B278"/>
<path d="M278.308 200.117C278.203 200.328 277.992 200.433 277.781 200.328C277.571 200.223 277.36 200.012 277.466 199.801C277.466 199.696 277.781 199.591 277.887 199.591C278.097 199.591 278.308 199.696 278.308 200.117Z" fill="#94B278"/>
<path d="M293.152 187.902C293.258 187.691 293.468 187.481 293.679 187.586C293.784 187.586 293.784 187.691 293.784 187.796C293.574 187.902 293.363 188.007 293.152 188.112C293.258 188.007 293.152 187.902 293.152 187.902Z" fill="#9BB982"/>
<path d="M275.99 207.594C275.99 207.805 275.99 207.91 275.99 208.121C275.78 208.016 275.359 208.226 275.464 207.805C275.464 207.7 275.78 207.7 275.99 207.594Z" fill="#94B278"/>
<path d="M308.421 209.174C308.315 209.385 308.105 209.595 307.789 209.49C307.684 209.49 307.684 209.385 307.684 209.279C307.894 209.279 308.105 209.174 308.421 209.174Z" fill="#9BB982"/>
<path d="M208.848 284.611C208.692 284.454 208.379 284.454 208.222 284.298C208.066 283.359 207.44 283.047 206.659 283.203C206.659 281.482 205.564 281.639 204.469 281.639C204.156 281.326 204 281.17 203.687 280.857C203.687 280.075 203.374 279.449 202.436 279.293C201.654 278.041 200.247 277.103 199.621 275.695C200.403 275.226 201.029 274.6 200.403 273.975C198.996 272.41 200.559 272.254 201.341 271.628C202.123 271.003 202.905 271.941 203.844 271.785C204.938 273.975 207.128 275.382 208.848 276.946C214.478 281.952 220.89 284.611 228.397 284.767C230.899 284.767 233.714 285.393 236.059 284.141C239.656 282.108 243.723 280.857 247.007 278.041C254.044 272.098 257.641 264.59 257.641 255.518C257.641 245.195 252.48 237.374 244.035 231.587C242.159 230.335 240.595 229.241 240.595 226.738C243.879 224.705 246.85 225.174 250.134 227.52C258.267 233.151 262.958 240.815 264.522 250.513C266.242 261.149 263.271 270.534 256.39 278.511C252.793 282.734 247.945 285.705 242.628 287.582C236.841 289.616 231.055 290.085 225.112 289.929C223.548 288.99 221.985 287.426 219.795 288.99C219.326 288.834 218.857 288.834 218.231 288.677C217.137 287.113 215.729 286.331 213.852 286.488C213.227 286.488 212.758 286.488 212.132 286.644C211.663 284.767 210.412 284.611 208.848 284.611Z" fill="#E77C7A"/>
<path d="M193.053 262.087C191.02 255.049 192.114 248.323 194.773 241.754C196.962 236.592 200.403 232.212 204.625 228.771C207.753 226.269 211.194 223.922 215.416 223.297C217.762 222.984 219.795 221.889 222.141 221.42C227.302 220.325 231.993 221.576 236.841 222.828C238.874 223.297 239.969 224.705 240.125 226.894C235.59 226.738 230.899 226.269 226.363 226.425C217.918 226.894 211.037 230.805 205.564 237.218C203.218 240.033 201.81 243.161 200.09 246.29C197.588 247.541 197.588 248.01 199.465 249.261C199.621 250.043 199.465 250.825 198.839 251.607C198.057 252.859 196.65 253.954 198.37 255.361C198.839 256.3 198.995 257.395 198.526 258.333C196.962 258.177 196.337 259.115 195.868 260.21C195.711 261.774 194.617 262.244 193.053 262.087Z" fill="#E77C7A"/>
<path d="M193.052 262.087C194.46 262.244 195.554 261.774 196.18 260.21C196.649 258.959 197.275 258.021 198.838 258.333C200.09 263.026 201.81 267.405 203.686 271.785C202.905 271.941 201.966 271.003 201.184 271.628C200.559 272.098 198.839 272.41 200.246 273.975C200.872 274.6 200.09 275.382 199.464 275.695C197.118 274.757 196.493 272.254 195.398 270.377C193.834 268.031 192.896 265.216 193.052 262.087Z" fill="#E88280"/>
<path d="M219.326 289.147C221.359 287.582 222.923 289.147 224.643 290.085C222.767 291.024 221.046 290.085 219.326 289.147Z" fill="#E88280"/>
<path d="M213.539 286.488C215.416 286.331 216.823 287.113 217.918 288.677C216.198 288.521 214.477 288.365 213.539 286.488Z" fill="#E88280"/>
<path d="M208.848 284.611C210.412 284.454 211.663 284.767 211.975 286.644C210.412 286.644 209.473 285.862 208.848 284.611Z" fill="#E88280"/>
<path d="M204.312 281.639C205.407 281.639 206.658 281.639 206.502 283.203C205.564 283.046 204.625 282.89 204.312 281.639Z" fill="#E88280"/>
<path d="M206.502 283.203C207.44 283.047 207.909 283.359 208.066 284.298C207.128 284.611 206.658 284.141 206.502 283.203Z" fill="#E88280"/>
<path d="M202.279 279.449C203.218 279.605 203.53 280.075 203.53 281.013C202.748 280.857 202.279 280.231 202.279 279.449Z" fill="#E88280"/>
<path d="M200.403 246.29C200.403 247.384 200.559 248.479 199.777 249.261C197.9 248.01 197.901 247.541 200.403 246.29Z" fill="#E88280"/>
<path d="M199.152 251.607C199.778 252.859 198.996 254.11 198.683 255.361C196.963 253.954 198.37 252.859 199.152 251.607Z" fill="#E88280"/>
<path d="M224.642 270.534C226.832 269.126 226.206 267.249 226.675 265.841C227.144 264.59 227.301 263.182 228.865 263.182C230.585 263.182 232.305 263.339 233.713 264.59C234.026 264.903 234.182 265.528 234.182 265.998C233.4 269.595 232.618 273.349 230.272 276.321C229.021 277.885 227.77 278.511 225.424 278.198C219.794 277.103 218.856 276.321 218.074 270.69C217.918 268.813 217.136 267.093 217.292 265.216C217.448 263.339 218.23 262.557 220.107 262.4C221.358 262.4 222.14 262.713 222.453 264.121C222.922 265.998 223.86 268.031 224.642 270.534Z" fill="#E88280"/>
<path d="M243.254 258.02C240.282 258.02 239.031 256.613 239.031 253.484C239.031 250.825 241.221 249.418 245.443 249.418C247.945 249.418 249.666 251.138 249.509 253.641C249.196 256.3 246.851 258.177 243.254 258.02Z" fill="#E67572"/>
<path d="M209.159 247.541C211.349 247.228 213.226 248.01 214.633 250.356C215.571 251.92 214.946 253.015 214.164 254.11C213.382 255.362 208.378 256.3 207.126 255.674C205.563 255.049 204.624 252.703 204.781 250.2C205.25 247.854 205.719 247.541 209.159 247.541Z" fill="#E67572"/>
<path d="M342.813 3.68871C349.875 3.42833 357.322 3.03771 364.769 2.90752C368.75 2.77733 372.73 2.77738 376.71 2.38681C379.792 2.12643 382.873 1.60565 386.083 1.47546C394.301 0.824516 402.518 0.43393 410.864 0.56412C415.486 0.56412 419.98 0.303788 424.602 0.043409C425.758 0.043409 427.299 -0.347208 427.684 1.21507C428.198 2.77735 429.61 4.07927 428.326 6.2925C425.501 11.2397 422.42 15.9265 419.081 20.4831C418.054 21.9152 418.311 22.8265 419.081 24.3888C421.521 29.336 425.373 33.3719 428.326 37.9286C429.225 39.2305 429.225 40.1418 428.326 41.1833C427.812 41.8343 427.17 42.355 426.914 43.1362C426.657 44.0475 426.015 44.3079 425.244 44.1777C423.318 44.0475 421.392 44.9588 419.466 44.8286C418.439 44.8286 417.412 44.8286 416.513 45.4796C415.871 46.0003 415.101 45.8701 414.459 45.8701C407.654 45.8701 400.849 46.0004 393.916 46.0004C389.55 46.0004 385.313 46.2607 381.076 46.3909C373.757 46.6513 366.31 46.3909 358.863 46.6513C353.727 46.7815 348.463 47.0419 343.327 47.4324C341.786 47.5626 340.246 47.3023 338.705 47.3023C335.495 47.3023 332.413 48.2136 329.203 47.9532C328.305 47.823 327.406 47.9532 326.507 47.6928C324.966 47.4324 324.068 46.1305 324.196 44.5682C324.838 38.5795 324.709 32.5908 324.196 26.6021C323.811 22.5662 324.196 18.5303 323.425 14.4944C322.912 12.151 322.912 9.80757 323.169 7.46416C323.297 6.16226 323.811 5.77174 324.709 5.64155C325.608 5.51136 326.507 4.9906 327.406 4.9906C332.285 5.12079 337.164 3.16795 342.813 3.68871Z" fill="#FAC95D"/>
<path d="M66.7001 198.186C68.5382 196.431 70.0285 196.765 71.7281 198.422C78.359 204.509 79.9632 215.513 76.4136 223.94C73.3094 231.24 67.851 236.687 60.7626 240.059C59.1889 240.742 57.7963 241.369 57.6297 243.402C56.9486 249.559 52.9525 253.961 48.7333 257.639C43.1634 262.724 36.7714 267.071 28.6795 267.184C28.2617 267.114 27.7743 267.463 27.468 267.755C27.6634 269.677 29.3209 270.555 30.129 271.892C30.8814 273.048 32.177 274.037 30.8263 275.444C29.601 276.614 27.9715 277.116 26.1887 276.475C25.4783 276.099 24.949 275.667 24.4197 275.236C21.6614 272.715 19.1399 270.319 16.5627 267.743C14.0413 265.347 13.832 264.024 16.0459 261.558C18.2598 259.092 20.014 255.777 23.6349 254.662C24.7212 254.328 25.7518 253.812 26.5041 254.968C27.2007 255.943 26.6996 256.89 26.0174 257.893C25.0288 259.189 24.0959 260.666 23.0378 262.379C27.5507 264.161 31.882 263.423 35.8231 261.416C43.8167 257.766 50.0269 250.897 51.07 244.629C49.3009 243.39 47.2536 243.822 45.3317 244.017C40.29 244.38 33.7154 241.052 31.625 235.55C30.6634 233.07 30.6628 230.494 30.4812 227.972C30.3415 226.231 31.4555 224.699 32.4998 223.584C35.2149 220.171 42.6797 218.666 46.6495 220.615C51.6223 223.247 54.6454 227.273 56.6243 232.412C58.4359 237.009 59.3831 237.51 63.115 234.18C72.0546 225.877 75.1865 217.38 70.1419 204.858C69.1803 202.379 67.787 200.429 66.7001 198.186ZM36.6939 231.412C38.4779 237.206 43.4368 240.437 49.509 239.559C51.0131 239.294 52.2247 238.723 51.6672 236.912C50.301 231.187 47.3473 226.744 41.8314 224.28C38.8646 223.012 36.3719 224.573 35.9966 227.86C35.969 229.058 36.3036 230.145 36.6939 231.412Z" fill="#E77C7A"/>
</svg>
