<svg width="502" height="351" viewBox="0 0 502 351" fill="none" xmlns="http://www.w3.org/2000/svg">
<path fill-rule="evenodd" clip-rule="evenodd" d="M3.80371 5.56586L486.601 1.36395L500.996 293.43L418.411 344.978L11.1649 351L2.14453 1" fill="white"/>
<path fill-rule="evenodd" clip-rule="evenodd" d="M1 5.3508C128.196 1.9264 255.088 3.64687 490.388 3.43181ZM2.47223 1.47974C120.905 3.03478 240.179 4.11007 486.765 4.47402ZM487.046 2.22417C488.238 98.9014 494.243 189.309 495.085 289.89ZM489.5 3.01823C491.533 67.2216 493.986 131.557 499.431 291.958ZM498.029 289.46C474.754 305.176 451.385 322.199 414.79 342.315ZM497.165 291.66C464.939 312.868 433.999 332.488 416.356 345.673ZM415.748 343.721C331.854 344.879 252.517 348.171 7.21608 348.601ZM417.898 345.888C310.612 348.105 204.542 348.287 7.21608 349.313ZM8.29104 349.081C0.626101 219.384 1.14021 94.2528 1.42064 1.86023ZM7.8704 347.344C6.32807 232.42 8.01061 117.992 4.71563 2.10837Z" fill="white"/>
<path d="M1 5.3508C128.196 1.9264 255.088 3.64687 490.388 3.43181M2.47223 1.47974C120.905 3.03478 240.179 4.11007 486.765 4.47402M487.046 2.22417C488.238 98.9014 494.243 189.309 495.085 289.89M489.5 3.01823C491.533 67.2216 493.986 131.557 499.431 291.958M498.029 289.46C474.754 305.176 451.385 322.199 414.79 342.315M497.165 291.66C464.939 312.868 433.999 332.488 416.356 345.673M415.748 343.721C331.854 344.879 252.517 348.171 7.21608 348.601M417.898 345.888C310.612 348.105 204.542 348.287 7.21608 349.313M8.29104 349.081C0.626101 219.384 1.14021 94.2528 1.42064 1.86023M7.8704 347.344C6.32807 232.42 8.01061 117.992 4.71563 2.10837" stroke="black" stroke-width="1.43693" stroke-linecap="round"/>
<path fill-rule="evenodd" clip-rule="evenodd" d="M493.169 292.274L419.021 281.323L410.725 346.7L499.245 291.017" fill="white"/>
<path d="M495.975 293.995C467.208 292.886 437.67 285.856 414.675 282.646M494.923 291.331C473.774 289.445 451.784 287.923 417.713 284.499M413.436 286.914C415.282 298.329 412.735 308.95 408.365 349.513M416.054 283.755C415.072 307.924 416.03 331.878 411.076 348.438M410.188 347.23C436.454 331.729 468.166 307.08 500.999 292.754M411.987 347.958C433.487 332.672 452.672 321.224 494.222 292.638" stroke="#343A40" stroke-width="1.43693" stroke-linecap="round"/>
</svg>
