<svg width="69" height="91" viewBox="0 0 69 91" fill="none" xmlns="http://www.w3.org/2000/svg">
<path d="M2.50901 8.85744C4.67367 6.28692 7.05687 5.01726 8.93013 2.96709M2.9357 9.35698C4.2782 7.08825 6.18268 5.39192 8.39937 3.30011M4.66326 15.6428C6.32838 13.218 10.46 7.76471 14.0816 2.48837M3.31035 15.9134C7.06727 11.1158 11.6568 6.68238 13.7694 1.77028M1 21.3562C7.20257 13.0411 15.1223 7.21314 20.5027 3.23767M2.40494 22.2408C8.23286 14.394 15.882 8.00407 18.3901 2.8318M3.12303 25.5815C8.51385 22.4594 14.7893 13.0202 25.0818 2.3843M3.41442 27.7357C8.25367 21.2314 14.4146 14.8311 24.1868 2.49877M1.62442 33.3971C11.7296 22.3449 20.9502 13.1972 32.0857 4.52814M4.02843 34.9165C9.90838 26.362 18.2132 17.5577 29.5984 3.21685M1.47872 41.8788C9.16949 32.7623 16.5376 22.8965 36.3005 2.42592M2.97733 40.8277C13.9775 29.0262 23.0732 17.4536 36.4878 1.58296M1.20814 46.1353C19.9719 27.8398 31.1282 11.2927 42.1388 1.354M3.02936 46.6036C13.3427 35.031 22.2823 24.2598 42.2221 2.52999M2.86285 51.4845C16.4336 39.3187 25.113 28.0271 44.3555 5.58965M2.33209 53.4306C18.9208 34.7084 36.082 17.1622 46.6034 5.03808M1.75971 59.0608C16.8915 43.8561 28.4224 29.4321 47.8002 8.6493M4.15332 59.8309C13.9151 47.9149 22.6674 36.0613 46.8116 9.45064M2.09273 64.4724C19.181 49.1741 32.273 30.9515 45.9582 18.4423M3.43524 64.9719C14.0712 53.6907 25.2691 40.911 46.26 16.9125M9.36722 65.2321C16.1526 55.1998 23.7705 47.8837 44.3035 23.958M9.68984 64.9199C18.0779 55.2622 25.3524 46.9054 44.8238 23.5417M15.653 66.2416C20.8461 58.8734 29.2966 52.0569 47.9251 29.0158M15.6426 64.7742C26.5179 50.475 39.8701 35.8428 46.3953 28.4226M21.1375 65.8877C26.4555 54.3464 36.2589 45.4484 46.593 35.2808M20.0552 66.1167C26.57 57.9784 33.9277 49.3198 46.208 35.8324M25.3211 65.8357C32.6997 55.8034 40.8067 51.6614 46.1143 40.3594M25.3003 64.7117C31.9712 58.2594 37.9656 49.8922 46.7283 42.139M31.5237 64.2538C35.4159 58.8526 41.6705 54.2735 45.7709 49.7361M30.6183 65.9502C37.4869 58.4572 43.3564 52.2338 45.6876 48.1542M35.8114 64.0665C37.924 61.8082 40.7235 59.8725 45.0944 54.3568M37.1227 65.5651C39.0375 62.8801 41.8474 59.2585 45.7501 54.617M41.785 66.1063C43.5125 64.5036 43.7935 62.953 46.6763 61.1838M41.9515 65.7316C43.8768 63.6086 45.2713 61.8082 46.0935 60.9756" stroke="#FF9F10" stroke-linecap="round"/>
<path d="M1.46875 2.11355C18.3593 1.12488 33.5223 1.78052 43.3985 1M3.76869 2.20721C16.8815 3.35198 31.4617 2.37372 44.8139 3.35198M46.0627 4.18454C42.6492 24.0723 45.0948 47.8835 45.0844 64.7116M44.6578 2.68593C45.6152 26.3826 45.2926 49.7671 45.2093 65.9188M43.9813 64.1184C30.1192 64.7948 14.2173 65.0238 4.94468 67.1052M44.2831 64.2953C35.3539 64.441 26.1333 64.3057 3.12346 64.6075M2.84247 64.722C1.17735 42.0452 2.74881 20.1072 4.63247 3.42483M2.03073 64.2953C2.41579 43.4605 2.84247 22.2511 2.2805 2.72756" stroke="#FE7A15" stroke-width="2" stroke-linecap="round"/>
<path d="M44.4091 19.8993C46.2928 16.9125 48.2805 15.1329 49.6959 12.7185M44.6589 19.0043C46.6986 16.9229 47.6665 15.4035 50.4972 13.2389M43.7118 25.311C45.8869 24.1142 51.3297 21.0649 54.8889 13.7176M44.201 26.31C48.4678 21.8038 50.9967 17.7555 54.7328 13.6135M46.1887 30.4312C47.0733 26.7888 52.6827 22.4699 54.4935 19.2853M45.0023 31.5343C47.9059 27.8607 52.7139 23.2608 54.9514 20.2636M15.3528 72.7148C15.7274 71.8302 17.2365 69.8841 20.6708 66.762M14.5723 72.9229C16.8826 71.185 18.631 69.0723 20.0255 66.9909M45.6892 37.8722C48.9361 33.3347 54.0356 28.0688 54.4414 24.8843M44.8878 38.2052C46.2928 34.9895 49.9664 32.19 56.0025 25.8209M16.0605 78.8237C17.5383 74.8899 21.316 73.0478 25.2811 65.5652M15.0822 78.6676C17.8713 75.5975 21.0246 72.4234 25.3227 65.6068M43.3164 44.5223C47.0421 41.3794 51.6107 35.9573 53.9315 30.9099M44.9295 44.2101C47.5832 41.1504 50.2786 37.6016 54.4831 32.3773M21.2952 78.449C25.9679 75.0043 29.319 69.9673 32.5347 66.3041M20.983 77.2939C24.0218 74.2342 26.6964 71.3619 31.161 66.5643M43.5765 49.2574C48.2597 45.6774 51.8189 42.982 55.2844 39.2875M44.482 51.4221C48.0099 47.1448 51.7356 43.1902 55.8464 38.4342M27.0294 76.5966C31.3587 75.5039 32.8469 69.8737 37.0722 66.1792M26.6548 78.1056C28.9235 74.5152 31.9207 72.9125 37.5613 66.2729M43.5349 57.4581C48.0203 54.4297 52.2352 49.6425 56.9807 45.0218M44.9399 57.2604C47.4584 54.8148 49.2692 51.6927 54.8369 44.1996M31.4316 76.4717C34.5849 74.4007 36.4894 71.851 41.8386 67.7611M32.3786 78.2409C35.969 73.5786 39.0599 69.7176 41.7345 66.2625M45.991 63.7127C47.1045 59.3418 51.8293 57.8224 56.6998 52.2547M45.3457 63.3589C47.4688 60.4241 50.0497 57.7079 54.4935 51.9529M35.7505 75.8889C43.8679 74.8066 44.2218 70.7166 55.3781 56.1261M38.1961 77.3771C44.1801 70.0714 52.2664 62.4327 54.6808 57.6455M45.1168 77.273C46.3136 73.6306 49.4773 71.1225 54.379 65.1801M43.5869 76.7319C46.0326 73.6514 50.5909 70.2587 56.1378 64.3059M48.0099 78.3033C49.7375 75.8161 51.2049 74.765 55.7943 70.0818M49.009 77.8038C51.4442 75.6079 53.1614 71.9135 55.1907 70.2171" stroke="#FF9F10" stroke-linecap="round"/>
<path d="M13.604 64.2226C13.6248 67.2927 12.7194 69.7279 13.9266 75.9409M13.094 65.2841C13.1981 67.2615 13.5831 70.3419 13.8121 74.973M11.9805 73.4328C30.9212 73.4432 46.8543 74.8065 56.8242 76.3988M14.1035 75.1604C26.0715 74.4319 38.5599 76.2947 55.898 75.7015M56.4287 74.973C56.6265 53.0351 57.178 33.1786 53.6605 11.5112M55.4817 74.7441C56.1789 54.4505 55.3672 34.6876 55.5233 12.8537M54.0871 12.3126C51.3813 12.1357 48.8732 13.4053 45.0539 13.2908M54.8364 12.8433C51.9641 12.7913 48.5194 12.9994 44.6792 12.7705M44.9186 14.6645C42.5354 29.661 43.2327 46.8638 45.3661 63.7959M43.7218 12.0316C44.1068 23.2919 44.1797 33.5116 45.1996 64.8679M44.6272 63.2548C34.803 65.4923 24.5729 64.8783 13.4895 62.9738M44.1797 64.3163C37.4984 64.9199 30.5465 65.9502 13.1981 65.919" stroke="#FE7A15" stroke-width="2" stroke-linecap="round"/>
<path d="M54.9281 29.2963C56.2706 28.2452 56.8534 26.8403 60.6415 23.4268M55.4588 29.2339C56.4787 27.6937 58.8099 26.091 60.4022 23.0417M53.5335 37.5491C59.1637 34.3958 60.0275 30.285 66.3237 25.3209M55.386 36.4147C58.2687 31.9605 62.0777 27.5272 65.1373 23.1874M53.8145 41.254C58.4977 37.9654 59.9963 35.2908 66.3341 30.1705M54.7095 42.3675C58.7579 38.6522 60.7768 35.9464 65.5328 30.3475M24.498 84.0475C25.4347 82.7258 27.7762 80.915 30.7943 76.6377M25.393 83.7353C26.8812 81.9245 28.1717 79.9992 30.7526 76.7626M55.1883 48.3932C59.2574 44.2512 60.0587 40.7336 64.8043 37.6011M54.2828 48.3411C59.1637 44.1471 62.9623 40.1717 65.7409 35.5822M25.0496 88.4809C28.6921 86.7117 30.7943 81.5186 35.5607 76.2631M25.674 88.9284C29.15 85.4108 31.1793 81.2688 37.0072 76.8355M53.2526 56.6251C56.7493 52.556 59.632 46.8529 65.845 44.1575M54.6991 55.3659C56.4683 52.8994 58.966 49.6108 66.0532 43.2417M33.1254 89.2406C36.5493 84.0891 40.0877 79.968 41.0139 78.2612M31.9807 87.5235C34.6657 84.776 37.0281 82.3408 41.5239 77.4495M55.4484 59.8721C59.2574 57.1142 61.7238 54.4709 66.2301 48.9135M55.053 61.4748C59.2886 56.9269 63.0247 52.5247 66.126 48.5597M38.6307 89.5216C40.3791 83.652 44.0112 80.6444 46.3631 75.8364M36.8615 87.6379C40.0981 85.7647 42.9809 82.4136 47.9034 76.8147M54.4598 69.3528C57.3633 66.1787 61.7238 62.0367 64.6482 54.7831M55.3131 68.1352C58.2583 63.681 61.651 58.7065 65.2934 54.7518M42.6478 87.3257C44.5003 85.0258 46.998 84.3805 53.1693 77.5119M43.1578 87.794C46.5088 83.5896 49.5477 79.6141 52.3992 76.6481M54.6367 73.0785C60.5166 70.1334 64.8668 65.1172 64.9188 61.4227M55.1674 73.9527C58.8099 69.9565 62.1505 65.4606 64.9292 61.7453M50.2762 89.6465C51.7227 84.7344 57.8004 76.1278 67.9993 69.9773M47.716 88.5225C53.1797 83.9226 56.2706 78.1884 65.5952 67.9687M53.648 87.5859C57.3841 84.3181 60.5583 80.3426 65.1165 75.7323M53.4191 87.5651C57.7588 84.5366 60.704 81.5602 65.0229 74.2025M58.5705 87.971C60.4438 86.5036 63.1704 84.0267 66.688 81.3833M59.4863 88.8035C60.7352 85.6294 62.7229 83.9226 65.6473 80.301" stroke="#FF9F10" stroke-linecap="round"/>
<path d="M24.1143 74.9622C23.2193 77.5327 24.3537 81.7163 23.1673 86.6076M23.5315 75.2016C23.8438 78.563 24.156 80.4571 24.3225 86.2018M24.8324 84.162C39.9434 85.9312 56.938 87.2112 65.3468 85.8896M24.1872 84.8801C37.2584 86.847 50.4024 86.2226 66.0233 85.5149M66.835 85.6086C66.9703 71.9442 63.6505 52.3895 65.9296 22.6983M66.3771 85.0258C65.3052 71.1428 65.6694 57.1559 65.8151 23.3227M65.274 22.563C63.2967 23.7494 59.9352 23.6245 55.0023 22.4277M65.4509 23.2707C62.7035 23.4476 60.7261 23.1458 55.148 23.1458M53.2019 23.406C53.972 36.1962 55.8452 46.6656 53.0666 74.2337M54.815 23.0209C54.4299 36.498 55.148 51.0782 55.5747 75.1599M56.1575 76.0445C48.9662 75.1704 39.3189 73.1202 22.4492 76.4296M55.2104 75.2432C45.355 76.0654 34.4381 76.1174 23.8125 76.388" stroke="#FE7A15" stroke-width="2" stroke-linecap="round"/>
<path d="M12.1758 11.4072C19.0548 14.1026 21.3443 14.623 33.4685 11.7194M13.5911 13.7592C21.4484 12.1669 28.8998 13.8112 35.0191 12.2814" stroke="#FE7A15" stroke-width="2" stroke-linecap="round"/>
<path d="M14.4256 34.8225C17.3708 35.499 23.2091 32.6891 35.2291 32.6475M14.207 32.8868C19.7019 34.375 24.7805 32.9493 33.231 34.323" stroke="#FE7A15" stroke-width="2" stroke-linecap="round"/>
<path d="M12.0938 24.9359C17.3077 22.022 23.7184 22.1468 33.272 23.7703M14.4145 24.1242C21.9804 22.8753 27.9436 24.1034 33.3865 23.635" stroke="#FE7A15" stroke-width="2" stroke-linecap="round"/>
<path d="M12.6562 42.9404C21.6687 42.9092 26.9555 44.4286 35.7494 45.8023M14.2069 43.5024C16.7982 44.5847 21.3461 44.3037 34.0738 45.1051" stroke="#FE7A15" stroke-width="2" stroke-linecap="round"/>
<path d="M13.9131 54.0447C16.8167 54.8668 21.9473 55.4808 22.8944 55.6265M12.9141 54.8772C16.8271 54.8148 21.0003 55.1478 24.0599 54.6067" stroke="#FE7A15" stroke-width="2" stroke-linecap="round"/>
</svg>
